<svg width="49" height="52" viewBox="0 0 49 52" fill="none" xmlns="http://www.w3.org/2000/svg">
<path d="M9.61749 39.0103C9.61749 40.3357 10.7926 41.4176 12.2384 41.4176H15.2346V48.2371C15.2346 49.9646 16.7419 51.375 18.5938 51.375C20.4518 51.375 21.9529 49.9703 21.9529 48.2371V41.4119H27.1824V48.2314C27.1824 49.959 28.6898 51.3693 30.5416 51.3693C32.3996 51.3693 33.9008 49.9646 33.9008 48.2314V41.4119H36.897C38.3428 41.4119 39.5179 40.3301 39.5179 39.0047V16.6203H9.61749V39.0103V39.0103ZM31.5875 5.02031L34.3499 1.33867C34.5099 1.12344 34.473 0.83457 34.2576 0.692969C34.0423 0.557031 33.7347 0.625001 33.5747 0.840235L30.7077 4.66914C28.819 3.98379 26.7149 3.6043 24.5062 3.6043C22.2975 3.6043 20.1934 3.98379 18.3046 4.66914L15.4376 0.845899C15.2776 0.630665 14.97 0.557032 14.7547 0.698633C14.5394 0.834571 14.5025 1.11777 14.6624 1.34434L17.4248 5.02598C13.032 6.90644 9.95587 10.4691 9.56212 14.6322H39.4625C39.0565 10.4635 35.9741 6.90078 31.5875 5.02031V5.02031ZM18.1939 10.826C17.8665 10.826 17.5466 10.7366 17.2744 10.5692C17.0022 10.4018 16.7901 10.1638 16.6649 9.88541C16.5396 9.607 16.5068 9.30065 16.5707 9.0051C16.6345 8.70954 16.7922 8.43806 17.0236 8.22497C17.2551 8.01189 17.55 7.86678 17.871 7.80799C18.192 7.7492 18.5248 7.77937 18.8272 7.89469C19.1296 8.01001 19.3881 8.2053 19.5699 8.45586C19.7518 8.70642 19.8488 9.001 19.8488 9.30234C19.8477 9.70611 19.673 10.093 19.3629 10.3786C19.0527 10.6641 18.6324 10.8249 18.1939 10.826V10.826ZM31.0153 10.826C30.688 10.826 30.368 10.7366 30.0959 10.5692C29.8237 10.4018 29.6116 10.1638 29.4863 9.88541C29.3611 9.607 29.3283 9.30065 29.3922 9.0051C29.456 8.70954 29.6136 8.43806 29.8451 8.22497C30.0766 8.01189 30.3714 7.86678 30.6925 7.80799C31.0135 7.7492 31.3463 7.77937 31.6487 7.89469C31.9511 8.01001 32.2096 8.2053 32.3914 8.45586C32.5733 8.70642 32.6703 9.001 32.6703 9.30234C32.6692 9.70611 32.4945 10.093 32.1843 10.3786C31.8742 10.6641 31.4539 10.8249 31.0153 10.826ZM44.7597 16.5297C42.9017 16.5297 41.4005 17.9344 41.4005 19.6676V31.9246C41.4005 33.6521 42.9078 35.0625 44.7597 35.0625C46.6177 35.0625 48.1189 33.6578 48.1189 31.9246V19.6619C48.125 17.9287 46.6238 16.5297 44.7597 16.5297ZM4.24034 16.5297C2.38234 16.5297 0.881165 17.9344 0.881165 19.6676V31.9246C0.881165 33.6521 2.38849 35.0625 4.24034 35.0625C6.09835 35.0625 7.59952 33.6578 7.59952 31.9246V19.6619C7.59952 17.9287 6.0922 16.5297 4.24034 16.5297Z" fill="#2AA2D5"/>
</svg>
