<svg width="48" height="58" viewBox="0 0 48 58" fill="none" xmlns="http://www.w3.org/2000/svg">
<path d="M46.9924 45.1997C46.1621 47.1695 45.1362 49.0478 43.9308 50.8054C42.3205 53.1459 40.9981 54.7633 39.9845 55.6635C38.4102 57.1343 36.7189 57.8911 34.9107 57.9338C33.6153 57.9338 32.05 57.5585 30.2268 56.7956C28.3976 56.0358 26.7183 55.6635 25.18 55.6635C23.5697 55.6635 21.8424 56.0358 19.9923 56.7956C18.1451 57.5585 16.6517 57.9583 15.5092 57.9949C13.779 58.0712 12.0487 57.2961 10.3245 55.6635C9.22396 54.687 7.84757 53.0086 6.19529 50.6345C4.42606 48.1048 2.9717 45.16 1.8322 41.8125C0.611733 38.1903 0 34.6871 0 31.2937C0 27.4091 0.82464 24.0554 2.47692 21.248C3.72661 19.0432 5.51323 17.203 7.66465 15.9047C9.78612 14.6099 12.2079 13.9126 14.6816 13.8846C16.061 13.8846 17.8692 14.3179 20.1092 15.1724C22.3492 16.0268 23.7886 16.4601 24.4153 16.4601C24.8891 16.4601 26.4814 15.9505 29.1922 14.9404C31.7501 14.0036 33.9092 13.6161 35.6784 13.7686C40.4763 14.1623 44.0777 16.0848 46.4737 19.5513C42.1855 22.197 40.0655 25.8986 40.1075 30.6499C40.1434 34.3514 41.4659 37.4304 44.0567 39.8747C45.2021 40.9902 46.5386 41.8827 48 42.5082C47.6821 43.445 47.3463 44.3392 46.9924 45.1997V45.1997ZM35.9962 1.16264C35.9962 4.06163 34.9527 6.77141 32.8806 9.27674C30.3737 12.2551 27.345 13.9792 24.0615 13.7076C24.0185 13.3431 23.9975 12.9762 23.9985 12.609C23.9985 9.82297 25.186 6.84465 27.3061 4.40645C28.3616 3.17362 29.705 2.14525 31.3333 1.32743C32.9586 0.521817 34.4939 0.076289 35.9393 0C35.9783 0.3906 35.9962 0.778148 35.9962 1.16264V1.16264Z" fill="#2AA2D5"/>
</svg>
